<svg xmlns="http://www.w3.org/2000/svg" xmlns:xlink="http://www.w3.org/1999/xlink" version="1.1" width="1000" height="1000" viewBox="0 0 1000 1000" xml:space="preserve">
<desc>Created with Fabric.js 3.5.0</desc>
<defs>
</defs>
<rect x="0" y="0" width="100%" height="100%" fill="rgba(204,0,111,0)"/>
<g transform="matrix(8.5582 0 0 8.5582 499.9999 403.1337)" id="397734">
<g style="" vector-effect="non-scaling-stroke">
		<g transform="matrix(1 0 0 1 -0.01 0.005)" id="Camada_1-2">
<path style="stroke: none; stroke-width: 1; stroke-dasharray: none; stroke-linecap: butt; stroke-dashoffset: 0; stroke-linejoin: miter; stroke-miterlimit: 4; is-custom-font: none; font-file-url: none; fill: rgb(0,0,0); fill-rule: nonzero; opacity: 1;" transform=" translate(-11.99, -11.88)" d="M 23.5 12.24 H 22.39 a 7 7 0 0 0 -4.12 -4.51 a 4.74 4.74 0 0 0 1 -2.94 a 4.79 4.79 0 0 0 -9.58 0 a 4.74 4.74 0 0 0 1.13 3.06 c -0.58 0.16 -1.44 0.43 -2.53 0.83 A 16.54 16.54 0 0 0 5.25 5.51 a 0.5 0.5 0 0 0 -0.81 0.4 V 11 A 18.66 18.66 0 0 0 2 13.36 H 0.5 a 0.5 0.5 0 0 0 -0.5 0.5 v 3.73 a 0.5 0.5 0 0 0 0.3 0.46 l 6.95 3 v 1.22 a 1.5 1.5 0 0 0 1.49 1.49 h 1.53 a 1.5 1.5 0 0 0 1.49 -1.49 V 21.2 h 3.85 v 1.05 a 1.5 1.5 0 0 0 1.49 1.49 h 1.53 a 1.5 1.5 0 0 0 1.49 -1.49 V 19.58 a 6.79 6.79 0 0 0 2.47 -6.35 h 0.89 a 0.5 0.5 0 0 0 0 -1 Z M 14.52 1 a 3.79 3.79 0 1 1 -3.79 3.79 A 3.79 3.79 0 0 1 14.52 1 Z m 4.82 18 l 0 0 l -0.07 0.08 l 0 0.07 a 0.5 0.5 0 0 0 0 0.09 a 0.52 0.52 0 0 0 0 0.1 s 0 0 0 0 v 2.9 a 0.5 0.5 0 0 1 -0.49 0.49 H 17.12 a 0.5 0.5 0 0 1 -0.49 -0.49 v -1.6 a 61.24 61.24 0 0 1 0 -0.18 l -0.05 -0.08 l -0.06 -0.08 l -0.07 0 l -0.09 -0.05 l -0.09 0 l -0.09 0 H 11.27 a 0.5 0.5 0 0 0 -0.5 0.5 v 1.55 a 0.5 0.5 0 0 1 -0.49 0.49 H 8.75 a 0.5 0.5 0 0 1 -0.49 -0.49 V 20.71 h 0 s 0 0 0 0 a 0.49 0.49 0 0 0 0 -0.16 a 0.47 0.47 0 0 0 -0.05 -0.08 A 0.35 0.35 0 0 0 8 20.26 l 0 0 h 0 L 1 17.26 v -2.9 H 2.24 a 0.5 0.5 0 0 0 0.4 -0.19 a 17.11 17.11 0 0 1 2.62 -2.56 l 0 0 l 0.07 -0.08 l 0 -0.07 a 0.47 0.47 0 0 0 0 -0.09 a 0.48 0.48 0 0 0 0 -0.1 V 7 A 11.48 11.48 0 0 1 7.7 9.52 a 0.49 0.49 0 0 0 0.15 0.16 l 0 0 a 0.49 0.49 0 0 0 0.22 0.07 H 8.3 c 1.74 -0.64 3 -1 3.41 -1.09 A 4.7 4.7 0 0 0 17.5 8.5 A 6 6 0 0 1 19.34 19 Z" stroke-linecap="round"/>
</g>
		<g transform="matrix(1 0 0 1 -6.62 2.145)" id="Camada_1-2">
<circle style="stroke: none; stroke-width: 1; stroke-dasharray: none; stroke-linecap: butt; stroke-dashoffset: 0; stroke-linejoin: miter; stroke-miterlimit: 4; is-custom-font: none; font-file-url: none; fill: rgb(0,0,0); fill-rule: nonzero; opacity: 1;" cx="0" cy="0" r="0.96"/>
</g>
		<g transform="matrix(1 0 0 1 2.515 -1.265)" id="Camada_1-2">
<path style="stroke: none; stroke-width: 1; stroke-dasharray: none; stroke-linecap: butt; stroke-dashoffset: 0; stroke-linejoin: miter; stroke-miterlimit: 4; is-custom-font: none; font-file-url: none; fill: rgb(0,0,0); fill-rule: nonzero; opacity: 1;" transform=" translate(-14.515, -10.61)" d="M 17.88 10.11 H 11.15 a 0.5 0.5 0 0 0 0 1 h 6.73 a 0.5 0.5 0 0 0 0 -1 Z" stroke-linecap="round"/>
</g>
</g>
</g>
<g transform="matrix(1 0 0 1 500 599.3898)" style="" id="879626">
		
<path xml:space="preserve" font-family="Anonymous Pro" font-size="100" font-style="normal" font-weight="bold" style="stroke: none; stroke-width: 1; stroke-dasharray: none; stroke-linecap: butt; stroke-dashoffset: 0; stroke-linejoin: miter; stroke-miterlimit: 4; is-custom-font: none; font-file-url: none; fill: rgb(255,204,51); fill-rule: nonzero; opacity: 1; white-space: pre;" d="M-175.24 22.33L-175.24 31.41L-215.97 31.41L-215.97-32.31L-175.24-32.31L-175.24-23.18L-205.86-23.18L-205.86-5.60L-181.98-5.60L-181.98 3.53L-205.86 3.53L-205.86 22.33L-175.24 22.33ZM-117.29 22.33L-117.29 31.41L-138.09 31.41L-138.09 22.33L-134.47 22.33L-141.16 7.93L-147.85 22.33L-144.29 22.33L-144.29 31.41L-164.89 31.41L-164.89 22.33L-159.38 22.33L-146.97-0.76L-159.18-23.18L-163.77-23.18L-163.77-32.31L-143.55-32.31L-143.55-23.18L-147.66-23.18L-141.16-9.06L-134.57-23.18L-138.57-23.18L-138.57-32.31L-118.26-32.31L-118.26-23.18L-123.19-23.18L-135.35-0.76L-122.95 22.33L-117.29 22.33ZM-63.67-13.26L-63.67-13.26Q-63.67-3.69-69.48 0.97Q-75.29 5.63-85.69 5.63L-85.69 5.63L-96.68 5.63L-96.68 31.41L-106.79 31.41L-106.79-32.31L-85.79-32.31Q-75.29-32.31-69.48-27.50Q-63.67-22.69-63.67-13.26ZM-73.78-13.41L-73.78-13.41Q-73.78-18.29-76.98-20.73Q-80.18-23.18-85.69-23.18L-85.69-23.18L-96.68-23.18L-96.68-3.50L-85.69-3.50Q-80.18-3.50-76.98-5.94Q-73.78-8.38-73.78-13.41ZM-9.18-32.31L-9.18-9.06L-18.21-9.06L-18.21-23.18L-26.81-23.18L-26.81 22.33L-16.70 22.33L-16.70 31.41L-46.97 31.41L-46.97 22.33L-36.91 22.33L-36.91-23.18L-45.61-23.18L-45.61-9.06L-54.59-9.06L-54.59-32.31L-9.18-32.31ZM28.22 5.10L46.39 31.41L33.59 31.41L17.09 5.63L12.50 5.63L12.50 31.41L2.39 31.41L2.39-32.31L23.39-32.31Q33.89-32.31 39.70-27.50Q45.51-22.69 45.51-13.26L45.51-13.26Q45.51-9.06 44.21-5.87Q42.92-2.67 40.55-0.37Q38.18 1.92 35.03 3.26Q31.88 4.61 28.22 5.10L28.22 5.10ZM35.40-13.41L35.40-13.41Q35.40-18.29 32.20-20.73Q29.00-23.18 23.39-23.18L23.39-23.18L12.50-23.18L12.50-3.50L23.39-3.50Q29.00-3.50 32.20-5.94Q35.40-8.38 35.40-13.41ZM103.08 31.41L92.48 31.41L87.89 16.23L66.80 16.23L62.30 31.41L51.71 31.41L71.58-32.31L83.20-32.31L103.08 31.41ZM77.39-18.98L69.48 7.29L85.21 7.29L77.39-18.98ZM147.56 8.81L155.66 11.93Q154.49 16.62 152.54 20.43Q150.59 24.24 147.78 26.92Q144.97 29.61 141.24 31.07Q137.50 32.54 132.67 32.54L132.67 32.54Q125.98 32.54 121.34 29.78Q116.70 27.02 113.75 22.41Q110.79 17.79 109.50 11.86Q108.20 5.93 108.20-0.47L108.20-0.47Q108.20-6.87 109.50-12.82Q110.79-18.78 113.70-23.32Q116.60-27.86 121.09-30.62Q125.59-33.38 132.08-33.38L132.08-33.38Q134.18-33.38 136.33-32.84Q138.48-32.31 140.33-31.21Q142.19-30.11 143.58-28.50Q144.97-26.89 145.56-24.79L145.56-24.79L145.56-32.31L154.69-32.31L154.69-8.19L145.56-8.19Q145.56-11.16 144.82-14.07Q144.09-16.97 142.48-19.22Q140.87-21.47 138.43-22.88Q135.99-24.30 132.67-24.30L132.67-24.30Q128.37-24.30 125.63-22.20Q122.90-20.10 121.24-16.68Q119.58-13.26 118.92-9.02Q118.26-4.77 118.26-0.47L118.26-0.47Q118.26 3.83 118.92 8.12Q119.58 12.42 121.19 15.81Q122.80 19.21 125.59 21.31Q128.37 23.41 132.67 23.41L132.67 23.41Q138.87 23.41 142.21 19.45Q145.56 15.50 147.56 8.81L147.56 8.81ZM186.87-5.89L208.98 31.41L197.17 31.41L180.47 1.73L176.27 6.71L176.27 31.41L166.16 31.41L166.16-32.31L176.27-32.31L176.27-7.31L196.09-32.31L209.08-32.31L186.87-5.89Z"/></g>
<g transform="matrix(1 0 0 1 500 724.5563)" style="" id="691457">
		
<path xml:space="preserve" font-family="Anonymous Pro" font-size="38" font-style="normal" font-weight="bold" style="stroke: none; stroke-width: 1; stroke-dasharray: none; stroke-linecap: butt; stroke-dashoffset: 0; stroke-linejoin: miter; stroke-miterlimit: 4; is-custom-font: none; font-file-url: none; fill: rgb(0,0,0); fill-rule: nonzero; opacity: 1; white-space: pre;" d="M-126.06-40.88L-117.66-26.71L-122.15-26.71L-128.49-37.99L-130.09-36.10L-130.09-26.71L-133.93-26.71L-133.93-50.92L-130.09-50.92L-130.09-41.42L-122.55-50.92L-117.62-50.92L-126.06-40.88ZM-96.08-33.89L-110.57-33.89Q-110.29-32.11-108.87-30.93Q-107.45-29.75-105.06-29.75L-105.06-29.75Q-103.18-29.75-101.80-30.34Q-100.42-30.92-99.42-31.89L-99.42-31.89L-97.45-29.18Q-99.12-27.51-100.98-26.89Q-102.85-26.28-105.06-26.28L-105.06-26.28Q-107.06-26.28-108.79-26.95Q-110.51-27.62-111.77-28.81Q-113.04-30.01-113.75-31.66Q-114.46-33.31-114.46-35.34L-114.46-35.34Q-114.46-37.30-113.81-38.96Q-113.15-40.62-111.95-41.84Q-110.75-43.06-109.08-43.73Q-107.41-44.41-105.39-44.41L-105.39-44.41Q-103.29-44.41-101.59-43.70Q-99.88-42.98-98.66-41.63Q-97.45-40.27-96.76-38.31Q-96.08-36.36-96.08-33.89L-96.08-33.89ZM-110.40-37.27L-100.42-37.27Q-100.71-38.94-102.14-39.95Q-103.57-40.96-105.39-40.96L-105.39-40.96Q-107.21-40.96-108.66-39.95Q-110.10-38.94-110.40-37.27L-110.40-37.27ZM-75.33-33.89L-89.82-33.89Q-89.54-32.11-88.13-30.93Q-86.71-29.75-84.31-29.75L-84.31-29.75Q-82.44-29.75-81.06-30.34Q-79.67-30.92-78.67-31.89L-78.67-31.89L-76.71-29.18Q-78.37-27.51-80.24-26.89Q-82.10-26.28-84.31-26.28L-84.31-26.28Q-86.32-26.28-88.04-26.95Q-89.77-27.62-91.03-28.81Q-92.29-30.01-93.01-31.66Q-93.72-33.31-93.72-35.34L-93.72-35.34Q-93.72-37.30-93.06-38.96Q-92.40-40.62-91.21-41.84Q-90.01-43.06-88.34-43.73Q-86.67-44.41-84.65-44.41L-84.65-44.41Q-82.55-44.41-80.84-43.70Q-79.14-42.98-77.92-41.63Q-76.71-40.27-76.02-38.31Q-75.33-36.36-75.33-33.89L-75.33-33.89ZM-89.66-37.27L-79.67-37.27Q-79.97-38.94-81.40-39.95Q-82.83-40.96-84.65-40.96L-84.65-40.96Q-86.46-40.96-87.91-39.95Q-89.36-38.94-89.66-37.27L-89.66-37.27ZM-71.70-19.79L-71.70-44.00L-67.85-44.00L-67.85-42.44Q-66.76-43.43-65.64-43.92Q-64.51-44.41-63.07-44.41L-63.07-44.41Q-61.40-44.41-59.97-43.73Q-58.54-43.06-57.52-41.86Q-56.50-40.66-55.91-38.98Q-55.31-37.30-55.31-35.34L-55.31-35.34Q-55.31-33.35-55.91-31.68Q-56.50-30.01-57.52-28.81Q-58.54-27.62-59.97-26.95Q-61.40-26.28-63.07-26.28L-63.07-26.28Q-64.51-26.28-65.64-26.80Q-66.76-27.32-67.85-28.30L-67.85-28.30L-67.85-19.79L-71.70-19.79ZM-67.85-39.40L-67.85-31.35Q-67.17-30.59-66.10-30.17Q-65.03-29.75-64.05-29.75L-64.05-29.75Q-61.88-29.75-60.52-31.29Q-59.15-32.83-59.15-35.34L-59.15-35.34Q-59.15-37.84-60.52-39.40Q-61.88-40.96-64.05-40.96L-64.05-40.96Q-65.03-40.96-66.10-40.56Q-67.17-40.16-67.85-39.40L-67.85-39.40ZM-17.01-32.98L-13.64-32.22Q-13.93-29.49-15.78-27.89Q-17.63-26.28-20.39-26.28L-20.39-26.28Q-21.91-26.28-23.17-26.78Q-24.44-27.28-25.33-28.17Q-26.22-29.07-26.71-30.32Q-27.20-31.57-27.20-33.05L-27.20-33.05L-27.20-40.53L-31.12-40.53L-31.12-44.00L-27.20-44.00L-27.20-50.92L-23.36-50.92L-23.36-44.00L-16.11-44.00L-16.11-40.53L-23.36-40.53L-23.36-33.05Q-23.36-31.38-22.54-30.57Q-21.73-29.75-20.39-29.75L-20.39-29.75Q-18.76-29.75-17.96-30.70Q-17.16-31.64-17.01-32.98L-17.01-32.98ZM7.94-43.65L6.49-39.90Q5.81-40.24 5.09-40.41Q4.38-40.59 3.45-40.59L3.45-40.59Q2.17-40.59 1.05-40.21Q-0.07-39.83-0.89-39.07Q-1.71-38.31-2.16-37.16Q-2.62-36.02-2.62-34.46L-2.62-34.46L-2.62-30.16L1.26-30.16L1.26-26.71L-10.37-26.71L-10.37-30.16L-6.46-30.16L-6.46-40.53L-10.37-40.53L-10.37-44.00L-2.62-44.00L-2.62-39.66Q-1.67-42.26 0.18-43.33Q2.02-44.41 4.56-44.41L4.56-44.41Q5.36-44.41 6.23-44.24Q7.11-44.08 7.94-43.65L7.94-43.65ZM10.30-31.68L10.30-31.68Q10.30-33.20 11.11-34.34Q11.93-35.49 13.26-36.25Q14.58-37.01 16.30-37.39Q18.02-37.77 19.80-37.77L19.80-37.77Q20.78-37.77 21.49-37.73Q22.19-37.69 22.92-37.62L22.92-37.62L22.92-38.31Q22.92-39.66 21.87-40.33Q20.82-41.00 19.11-41.00L19.11-41.00Q17.55-41.00 15.94-40.56Q14.32-40.12 12.88-39.29L12.88-39.29L11.32-42.29Q13.03-43.28 14.98-43.84Q16.94-44.41 19.11-44.41L19.11-44.41Q20.52-44.41 21.89-44.09Q23.25-43.78 24.33-43.06Q25.42-42.33 26.07-41.17Q26.72-40.01 26.72-38.31L26.72-38.31L26.72-26.71L22.92-26.71L22.92-29.25Q22.01-27.84 20.23-27.06Q18.46-26.28 16.42-26.28L16.42-26.28Q15.16-26.28 14.04-26.63Q12.91-26.97 12.10-27.65Q11.28-28.34 10.79-29.35Q10.30-30.36 10.30-31.68ZM17.40-29.71L17.40-29.71Q18.54-29.71 19.53-30.00Q20.52-30.29 21.28-30.80Q22.04-31.31 22.48-32.03Q22.92-32.76 22.92-33.63L22.92-33.63L22.92-34.28Q22.01-34.43 21.21-34.45Q20.41-34.46 19.80-34.46L19.80-34.46Q16.98-34.46 15.54-33.72Q14.10-32.98 14.10-31.89L14.10-31.89Q14.10-29.71 17.40-29.71ZM45.79-31.89L47.76-29.18Q46.09-27.51 44.24-26.89Q42.40-26.28 40.25-26.28L40.25-26.28Q38.07-26.28 36.30-26.93Q34.53-27.58 33.30-28.76Q32.06-29.94 31.40-31.61Q30.75-33.28 30.75-35.34L30.75-35.34Q30.75-37.30 31.40-38.98Q32.06-40.66 33.19-41.86Q34.31-43.06 35.83-43.73Q37.35-44.41 39.06-44.41L39.06-44.41Q40.84-44.41 42.16-43.67Q43.47-42.93 44.07-41.50L44.07-41.50L44.07-44.00L47.50-44.00L47.50-35.95L44.07-35.95Q44.07-38.23 42.81-39.59Q41.56-40.96 39.56-40.96L39.56-40.96Q38.76-40.96 37.88-40.63Q37.00-40.31 36.27-39.62Q35.53-38.94 35.05-37.88Q34.57-36.82 34.57-35.34L34.57-35.34Q34.57-33.89 35.03-32.84Q35.50-31.79 36.25-31.12Q37.00-30.44 38.03-30.09Q39.06-29.75 40.15-29.75L40.15-29.75Q42.03-29.75 43.41-30.34Q44.79-30.92 45.79-31.89L45.79-31.89ZM60.82-36.06L69.12-26.71L64.14-26.71L58.35-33.70L56.61-31.92L56.61-26.71L52.77-26.71L52.77-50.92L56.61-50.92L56.61-36.67L63.53-44.00L68.80-44.00L60.82-36.06ZM111.09-35.34L111.09-35.34Q111.09-33.31 110.45-31.66Q109.81-30.01 108.61-28.81Q107.41-27.62 105.74-26.95Q104.07-26.28 102.01-26.28L102.01-26.28Q99.99-26.28 98.32-26.95Q96.65-27.62 95.45-28.81Q94.26-30.01 93.62-31.66Q92.98-33.31 92.98-35.34L92.98-35.34Q92.98-37.30 93.62-38.98Q94.26-40.66 95.45-41.88Q96.65-43.09 98.32-43.75Q99.99-44.41 102.01-44.41L102.01-44.41Q104.07-44.41 105.74-43.75Q107.41-43.09 108.61-41.88Q109.81-40.66 110.45-38.98Q111.09-37.30 111.09-35.34ZM107.26-35.34L107.26-35.34Q107.26-36.51 106.90-37.55Q106.54-38.60 105.85-39.34Q105.17-40.09 104.19-40.52Q103.22-40.96 102.01-40.96L102.01-40.96Q100.79-40.96 99.82-40.52Q98.86-40.09 98.19-39.34Q97.52-38.60 97.16-37.55Q96.80-36.51 96.80-35.34L96.80-35.34Q96.80-34.11 97.16-33.11Q97.52-32.11 98.19-31.35Q98.86-30.59 99.82-30.17Q100.79-29.75 102.01-29.75L102.01-29.75Q103.22-29.75 104.19-30.17Q105.17-30.59 105.85-31.35Q106.54-32.11 106.90-33.11Q107.26-34.11 107.26-35.34ZM131.39-44.00L131.39-40.53L124.65-40.53L124.65-30.16L128.60-30.16L128.60-26.71L116.99-26.71L116.99-30.16L120.81-30.16L120.81-40.53L116.99-40.53L116.99-44.00L120.81-44.00Q120.81-47.56 123.00-49.45Q125.19-51.33 128.92-51.33L128.92-51.33Q129.47-51.33 130.11-51.28Q130.74-51.22 131.39-51.15L131.39-51.15L131.39-47.77Q130.27-47.88 129.36-47.88L129.36-47.88Q127.88-47.88 126.97-47.67Q126.06-47.45 125.55-46.98Q125.04-46.51 124.85-45.76Q124.65-45.02 124.65-44.00L124.65-44.00L131.39-44.00Z"/><path xml:space="preserve" font-family="Anonymous Pro" font-size="38" font-style="normal" font-weight="bold" style="stroke: none; stroke-width: 1; stroke-dasharray: none; stroke-linecap: butt; stroke-dashoffset: 0; stroke-linejoin: miter; stroke-miterlimit: 4; is-custom-font: none; font-file-url: none; fill: rgb(0,0,0); fill-rule: nonzero; opacity: 1; white-space: pre;" d="M-90.70-5.36L-86.58-5.36L-94.04 15.31Q-94.87 17.56-96.47 18.39Q-98.06 19.23-100.27 19.23L-100.27 19.23Q-101.03 19.23-101.90 19.08Q-102.77 18.93-103.72 18.58L-103.72 18.58L-102.92 15.05Q-102.12 15.35-101.46 15.47Q-100.79 15.59-100.27 15.59L-100.27 15.59Q-98.54 15.59-97.91 14.07L-97.91 14.07L-97.23 12.40L-103.83-5.36L-99.84-5.36L-95.09 7.73L-90.70-5.36ZM-65.24 3.31L-65.24 3.31Q-65.24 5.33-65.88 6.98Q-66.52 8.63-67.72 9.83Q-68.91 11.03-70.58 11.70Q-72.25 12.36-74.31 12.36L-74.31 12.36Q-76.33 12.36-78.00 11.70Q-79.67 11.03-80.87 9.83Q-82.07 8.63-82.71 6.98Q-83.35 5.33-83.35 3.31L-83.35 3.31Q-83.35 1.34-82.71-0.34Q-82.07-2.02-80.87-3.23Q-79.67-4.45-78.00-5.11Q-76.33-5.76-74.31-5.76L-74.31-5.76Q-72.25-5.76-70.58-5.11Q-68.91-4.45-67.72-3.23Q-66.52-2.02-65.88-0.34Q-65.24 1.34-65.24 3.31ZM-69.06 3.31L-69.06 3.31Q-69.06 2.14-69.42 1.09Q-69.78 0.04-70.47-0.70Q-71.16-1.44-72.13-1.88Q-73.11-2.31-74.31-2.31L-74.31-2.31Q-75.54-2.31-76.50-1.88Q-77.47-1.44-78.13-0.70Q-78.80 0.04-79.16 1.09Q-79.53 2.14-79.53 3.31L-79.53 3.31Q-79.53 4.53-79.16 5.54Q-78.80 6.54-78.13 7.30Q-77.47 8.06-76.50 8.48Q-75.54 8.89-74.31 8.89L-74.31 8.89Q-73.11 8.89-72.13 8.48Q-71.16 8.06-70.47 7.30Q-69.78 6.54-69.42 5.54Q-69.06 4.53-69.06 3.31ZM-61.32 5.33L-61.32-5.36L-57.48-5.36L-57.48 5.33Q-57.48 7.34-56.72 8.12Q-55.96 8.89-54.51 8.89L-54.51 8.89Q-52.40 8.89-51.04 7.17Q-49.69 5.44-49.69 2.40L-49.69 2.40L-49.69-5.36L-45.85-5.36L-45.85 11.94L-49.69 11.94L-49.69 7.61Q-50.26 9.84-51.82 11.10Q-53.38 12.36-55.66 12.36L-55.66 12.36Q-58.32 12.36-59.82 10.63Q-61.32 8.89-61.32 5.33L-61.32 5.33ZM-23.17-5.00L-24.62-1.26Q-25.31-1.59-26.02-1.77Q-26.74-1.94-27.67-1.94L-27.67-1.94Q-28.95-1.94-30.07-1.56Q-31.19-1.18-32.01-0.42Q-32.82 0.34-33.28 1.48Q-33.73 2.62-33.73 4.18L-33.73 4.18L-33.73 8.49L-29.85 8.49L-29.85 11.94L-41.49 11.94L-41.49 8.49L-37.57 8.49L-37.57-1.89L-41.49-1.89L-41.49-5.36L-33.73-5.36L-33.73-1.01Q-32.79-3.61-30.94-4.69Q-29.09-5.76-26.55-5.76L-26.55-5.76Q-25.75-5.76-24.88-5.60Q-24.01-5.43-23.17-5.00L-23.17-5.00ZM16.38-12.28L16.38 11.94L12.54 11.94L12.54 10.34Q11.43 11.32 10.30 11.84Q9.17 12.36 7.72 12.36L7.72 12.36Q6.05 12.36 4.62 11.70Q3.19 11.03 2.16 9.83Q1.13 8.63 0.55 6.96Q-0.04 5.29-0.04 3.31L-0.04 3.31Q-0.04 1.34 0.55-0.34Q1.13-2.02 2.16-3.21Q3.19-4.41 4.62-5.09Q6.05-5.76 7.72-5.76L7.72-5.76Q9.17-5.76 10.30-5.27Q11.43-4.78 12.54-3.80L12.54-3.80L12.54-8.81L9.20-8.81L9.20-12.28L16.38-12.28ZM12.54 7.34L12.54-0.75Q11.86-1.51 10.77-1.91Q9.69-2.31 8.70-2.31L8.70-2.31Q6.53-2.31 5.17-0.75Q3.80 0.80 3.80 3.31L3.80 3.31Q3.80 5.81 5.17 7.35Q6.53 8.89 8.70 8.89L8.70 8.89Q9.69 8.89 10.77 8.50Q11.86 8.10 12.54 7.34L12.54 7.34ZM20.67 6.96L20.67 6.96Q20.67 5.44 21.49 4.30Q22.30 3.16 23.63 2.40Q24.96 1.64 26.67 1.26Q28.39 0.88 30.17 0.88L30.17 0.88Q31.15 0.88 31.86 0.92Q32.56 0.95 33.29 1.03L33.29 1.03L33.29 0.34Q33.29-1.01 32.24-1.68Q31.19-2.35 29.48-2.35L29.48-2.35Q27.92-2.35 26.31-1.91Q24.70-1.48 23.25-0.64L23.25-0.64L21.69-3.65Q23.40-4.63 25.35-5.20Q27.31-5.76 29.48-5.76L29.48-5.76Q30.89-5.76 32.26-5.45Q33.62-5.13 34.71-4.41Q35.79-3.69 36.44-2.53Q37.09-1.37 37.09 0.34L37.09 0.34L37.09 11.94L33.29 11.94L33.29 9.40Q32.38 10.81 30.61 11.58Q28.83 12.36 26.79 12.36L26.79 12.36Q25.53 12.36 24.41 12.02Q23.29 11.68 22.47 10.99Q21.65 10.30 21.16 9.29Q20.67 8.28 20.67 6.96ZM27.78 8.93L27.78 8.93Q28.91 8.93 29.90 8.64Q30.89 8.36 31.65 7.85Q32.42 7.34 32.85 6.61Q33.29 5.89 33.29 5.02L33.29 5.02L33.29 4.37Q32.38 4.22 31.58 4.20Q30.78 4.18 30.17 4.18L30.17 4.18Q27.35 4.18 25.91 4.92Q24.47 5.67 24.47 6.76L24.47 6.76Q24.47 8.93 27.78 8.93ZM52.47-12.28L52.47-7.60L47.80-7.60L47.80-12.28L52.47-12.28ZM56.00 8.49L56.00 11.94L44.38 11.94L44.38 8.49L48.21 8.49L48.21-1.89L44.38-1.89L44.38-5.36L52.05-5.36L52.05 8.49L56.00 8.49ZM76.78 8.49L76.78 11.94L65.16 11.94L65.16 8.49L68.95 8.49L68.95-8.81L65.16-8.81L65.16-12.28L72.79-12.28L72.79 8.49L76.78 8.49ZM96.00-5.36L100.12-5.36L92.66 15.31Q91.83 17.56 90.23 18.39Q88.64 19.23 86.43 19.23L86.43 19.23Q85.67 19.23 84.79 19.08Q83.92 18.93 82.98 18.58L82.98 18.58L83.77 15.05Q84.57 15.35 85.24 15.47Q85.91 15.59 86.43 15.59L86.43 15.59Q88.15 15.59 88.78 14.07L88.78 14.07L89.47 12.40L82.87-5.36L86.85-5.36L91.60 7.73L96.00-5.36Z"/><path xml:space="preserve" font-family="Anonymous Pro" font-size="38" font-style="normal" font-weight="bold" style="stroke: none; stroke-width: 1; stroke-dasharray: none; stroke-linecap: butt; stroke-dashoffset: 0; stroke-linejoin: miter; stroke-miterlimit: 4; is-custom-font: none; font-file-url: none; fill: rgb(0,0,0); fill-rule: nonzero; opacity: 1; white-space: pre;" d="M-75.33 43.40L-89.82 43.40Q-89.54 45.18-88.13 46.36Q-86.71 47.54-84.31 47.54L-84.31 47.54Q-82.44 47.54-81.06 46.96Q-79.67 46.37-78.67 45.41L-78.67 45.41L-76.71 48.12Q-78.37 49.79-80.24 50.40Q-82.10 51.01-84.31 51.01L-84.31 51.01Q-86.32 51.01-88.04 50.34Q-89.77 49.67-91.03 48.48Q-92.29 47.28-93.01 45.63Q-93.72 43.98-93.72 41.96L-93.72 41.96Q-93.72 39.99-93.06 38.33Q-92.40 36.67-91.21 35.45Q-90.01 34.24-88.34 33.56Q-86.67 32.88-84.65 32.88L-84.65 32.88Q-82.55 32.88-80.84 33.60Q-79.14 34.31-77.92 35.67Q-76.71 37.02-76.02 38.98Q-75.33 40.93-75.33 43.40L-75.33 43.40ZM-89.66 40.03L-79.67 40.03Q-79.97 38.36-81.40 37.34Q-82.83 36.33-84.65 36.33L-84.65 36.33Q-86.46 36.33-87.91 37.34Q-89.36 38.36-89.66 40.03L-89.66 40.03ZM-54.90 47.13L-54.90 50.58L-63.10 50.58L-63.10 47.13L-61.58 47.13L-63.94 43.51L-66.26 47.13L-64.85 47.13L-64.85 50.58L-72.98 50.58L-72.98 47.13L-70.47 47.13L-66.59 41.81L-70.29 36.76L-72.60 36.76L-72.60 33.29L-64.81 33.29L-64.81 36.76L-66.04 36.76L-63.94 40.10L-61.81 36.76L-63.18 36.76L-63.18 33.29L-55.31 33.29L-55.31 36.76L-57.56 36.76L-61.25 41.81L-57.37 47.13L-54.90 47.13ZM-50.95 57.50L-50.95 33.29L-47.11 33.29L-47.11 34.85Q-46.02 33.87-44.89 33.37Q-43.77 32.88-42.32 32.88L-42.32 32.88Q-40.65 32.88-39.22 33.56Q-37.80 34.24-36.78 35.43Q-35.75 36.63-35.16 38.31Q-34.57 39.99-34.57 41.96L-34.57 41.96Q-34.57 43.94-35.16 45.61Q-35.75 47.28-36.78 48.48Q-37.80 49.67-39.22 50.34Q-40.65 51.01-42.32 51.01L-42.32 51.01Q-43.77 51.01-44.89 50.49Q-46.02 49.97-47.11 48.99L-47.11 48.99L-47.11 57.50L-50.95 57.50ZM-47.11 37.89L-47.11 45.94Q-46.42 46.71-45.36 47.12Q-44.29 47.54-43.31 47.54L-43.31 47.54Q-41.14 47.54-39.77 46.00Q-38.41 44.46-38.41 41.96L-38.41 41.96Q-38.41 39.45-39.77 37.89Q-41.14 36.33-43.31 36.33L-43.31 36.33Q-44.29 36.33-45.36 36.73Q-46.42 37.13-47.11 37.89L-47.11 37.89ZM-13.10 43.40L-27.59 43.40Q-27.31 45.18-25.89 46.36Q-24.47 47.54-22.08 47.54L-22.08 47.54Q-20.21 47.54-18.82 46.96Q-17.44 46.37-16.44 45.41L-16.44 45.41L-14.47 48.12Q-16.14 49.79-18.01 50.40Q-19.87 51.01-22.08 51.01L-22.08 51.01Q-24.08 51.01-25.81 50.34Q-27.54 49.67-28.80 48.48Q-30.06 47.28-30.77 45.63Q-31.49 43.98-31.49 41.96L-31.49 41.96Q-31.49 39.99-30.83 38.33Q-30.17 36.67-28.97 35.45Q-27.78 34.24-26.11 33.56Q-24.44 32.88-22.41 32.88L-22.41 32.88Q-20.32 32.88-18.61 33.60Q-16.90 34.31-15.69 35.67Q-14.47 37.02-13.79 38.98Q-13.10 40.93-13.10 43.40L-13.10 43.40ZM-27.42 40.03L-17.44 40.03Q-17.74 38.36-19.17 37.34Q-20.60 36.33-22.41 36.33L-22.41 36.33Q-24.23 36.33-25.68 37.34Q-27.13 38.36-27.42 40.03L-27.42 40.03ZM6.01 39.91L6.01 50.58L2.17 50.58L2.17 39.91Q2.17 37.89 1.41 37.11Q0.65 36.33-0.80 36.33L-0.80 36.33Q-2.93 36.33-4.28 38.06Q-5.62 39.78-5.62 42.83L-5.62 42.83L-5.62 50.58L-9.46 50.58L-9.46 33.29L-5.62 33.29L-5.62 37.63Q-5.05 35.39-3.49 34.13Q-1.93 32.88 0.35 32.88L0.35 32.88Q3.01 32.88 4.51 34.61Q6.01 36.33 6.01 39.91L6.01 39.91ZM27.20 45.41L27.20 45.41Q27.20 47.10 26.44 48.15Q25.68 49.21 24.48 49.86Q23.29 50.51 21.81 50.76Q20.34 51.01 18.93 51.01L18.93 51.01Q16.57 51.01 14.23 50.32Q11.89 49.64 10.19 48.52L10.19 48.52L11.78 45.37Q13.82 46.56 15.52 47.05Q17.22 47.54 18.93 47.54L18.93 47.54Q21.25 47.54 22.30 47.05Q23.36 46.56 23.36 45.68L23.36 45.68Q23.36 45.26 23.06 44.98Q22.77 44.70 22.08 44.47Q21.39 44.24 20.27 44.01Q19.15 43.77 17.48 43.51L17.48 43.51Q16.14 43.29 14.95 42.97Q13.75 42.64 12.84 42.05Q11.93 41.45 11.38 40.55Q10.84 39.64 10.84 38.26L10.84 38.26Q10.84 36.87 11.55 35.84Q12.26 34.81 13.42 34.14Q14.58 33.48 16.03 33.18Q17.48 32.88 18.93 32.88L18.93 32.88Q20.97 32.88 22.89 33.41Q24.81 33.94 26.25 34.92L26.25 34.92L24.73 37.89Q23.29 36.98 21.92 36.66Q20.56 36.33 18.93 36.33L18.93 36.33Q18.24 36.33 17.50 36.41Q16.75 36.48 16.12 36.70Q15.49 36.91 15.08 37.27Q14.66 37.63 14.66 38.15L14.66 38.15Q14.66 38.84 15.87 39.27Q17.09 39.71 20.02 40.14L20.02 40.14Q21.62 40.36 22.93 40.70Q24.25 41.05 25.20 41.63Q26.14 42.22 26.67 43.13Q27.20 44.05 27.20 45.41ZM49.13 43.40L34.64 43.40Q34.92 45.18 36.34 46.36Q37.76 47.54 40.15 47.54L40.15 47.54Q42.03 47.54 43.41 46.96Q44.79 46.37 45.79 45.41L45.79 45.41L47.76 48.12Q46.09 49.79 44.23 50.40Q42.36 51.01 40.15 51.01L40.15 51.01Q38.15 51.01 36.42 50.34Q34.70 49.67 33.44 48.48Q32.17 47.28 31.46 45.63Q30.75 43.98 30.75 41.96L30.75 41.96Q30.75 39.99 31.40 38.33Q32.06 36.67 33.26 35.45Q34.46 34.24 36.13 33.56Q37.80 32.88 39.82 32.88L39.82 32.88Q41.92 32.88 43.62 33.60Q45.33 34.31 46.54 35.67Q47.76 37.02 48.45 38.98Q49.13 40.93 49.13 43.40L49.13 43.40ZM34.81 40.03L44.79 40.03Q44.49 38.36 43.07 37.34Q41.64 36.33 39.82 36.33L39.82 36.33Q38.00 36.33 36.55 37.34Q35.11 38.36 34.81 40.03L34.81 40.03ZM68.69 45.41L68.69 45.41Q68.69 47.10 67.93 48.15Q67.17 49.21 65.97 49.86Q64.77 50.51 63.30 50.76Q61.82 51.01 60.41 51.01L60.41 51.01Q58.06 51.01 55.72 50.32Q53.38 49.64 51.67 48.52L51.67 48.52L53.27 45.37Q55.31 46.56 57.01 47.05Q58.71 47.54 60.41 47.54L60.41 47.54Q62.73 47.54 63.79 47.05Q64.85 46.56 64.85 45.68L64.85 45.68Q64.85 45.26 64.55 44.98Q64.25 44.70 63.57 44.47Q62.88 44.24 61.76 44.01Q60.64 43.77 58.97 43.51L58.97 43.51Q57.63 43.29 56.43 42.97Q55.24 42.64 54.33 42.05Q53.42 41.45 52.87 40.55Q52.32 39.64 52.32 38.26L52.32 38.26Q52.32 36.87 53.04 35.84Q53.75 34.81 54.91 34.14Q56.07 33.48 57.52 33.18Q58.97 32.88 60.41 32.88L60.41 32.88Q62.46 32.88 64.38 33.41Q66.30 33.94 67.74 34.92L67.74 34.92L66.22 37.89Q64.77 36.98 63.41 36.66Q62.05 36.33 60.41 36.33L60.41 36.33Q59.73 36.33 58.99 36.41Q58.24 36.48 57.61 36.70Q56.98 36.91 56.56 37.27Q56.15 37.63 56.15 38.15L56.15 38.15Q56.15 38.84 57.36 39.27Q58.58 39.71 61.51 40.14L61.51 40.14Q63.10 40.36 64.42 40.70Q65.74 41.05 66.69 41.63Q67.63 42.22 68.16 43.13Q68.69 44.05 68.69 45.41ZM83.59 45.91L83.59 50.58L78.91 50.58L78.91 45.91L83.59 45.91Z"/></g>
</svg>